<svg xmlns="http://www.w3.org/2000/svg" width="204" height="192" viewBox="0 0 204 192">
<g>
<path d="M 146.07 179.16 C136.34,182.30 116.24,182.73 106.00,180.01 C92.69,176.47 82.53,170.73 73.43,161.60 C69.00,157.14 64.21,151.39 62.79,148.82 C59.47,142.78 56.55,135.12 57.29,134.38 C57.60,134.06 60.71,135.82 64.18,138.28 C70.87,143.01 76.20,146.00 77.96,146.00 C78.55,146.00 76.92,143.42 74.35,140.26 C68.07,132.55 65.90,127.25 65.27,118.12 C63.80,96.58 75.07,81.40 100.00,71.33 L 105.50 69.11 L 98.00 69.69 C83.14,70.83 67.69,77.58 58.54,86.93 C55.81,89.72 53.22,92.00 52.79,92.00 C51.67,92.00 51.81,83.16 52.98,79.06 C54.22,74.75 53.75,74.28 50.55,76.63 C46.46,79.63 39.25,89.97 36.33,97.00 C33.99,102.66 33.63,104.92 33.57,114.50 C33.53,120.55 33.90,127.70 34.38,130.39 L 35.27 135.27 L 32.02 133.39 C30.24,132.35 26.85,129.81 24.48,127.75 C22.12,125.69 19.98,124.00 19.73,124.00 C19.00,124.00 20.66,131.94 22.54,137.50 C24.55,143.43 28.46,151.68 32.36,158.25 C36.53,165.25 33.94,164.03 26.75,155.60 C7.19,132.69 -0.01,103.91 6.57,74.99 C10.81,56.35 21.23,39.64 37.16,25.93 C56.41,9.36 81.63,5.62 108.20,15.39 C118.43,19.16 123.79,22.66 132.15,31.05 C139.62,38.55 145.60,48.37 147.57,56.35 C148.26,59.17 148.23,59.16 141.88,54.47 C136.06,50.17 128.21,46.00 125.92,46.00 C125.41,46.00 126.84,47.84 129.10,50.10 C131.35,52.35 134.62,57.19 136.35,60.85 C139.23,66.93 139.50,68.35 139.50,77.50 C139.49,87.09 139.34,87.81 135.66,95.19 C129.76,107.01 120.00,115.28 105.61,120.62 L 99.50 122.90 L 104.56 122.95 C111.53,123.02 125.29,119.42 132.48,115.64 C135.78,113.91 141.45,109.70 145.09,106.27 C148.73,102.84 152.00,100.33 152.35,100.69 C153.31,101.64 153.10,107.87 151.94,112.88 C151.39,115.29 151.15,117.49 151.43,117.76 C152.39,118.72 161.16,108.41 164.68,102.17 C171.73,89.71 173.88,75.67 170.65,63.22 C169.90,60.35 169.70,58.00 170.20,58.00 C172.01,58.00 177.21,61.20 181.06,64.67 C184.33,67.63 185.00,67.91 185.00,66.35 C185.00,61.60 180.38,48.59 175.38,39.25 C172.36,33.61 170.30,29.00 170.80,29.00 C171.29,29.00 173.94,31.59 176.67,34.75 C187.56,47.36 193.96,59.25 198.23,74.85 C201.26,85.95 201.25,107.38 198.21,118.19 C190.26,146.39 168.42,171.93 146.07,179.16 Z" fill="rgb(204,26,26)"/>
<path d="M 0.00 96.00 L 0.00 0.00 L 102.00 0.00 L 204.00 0.00 L 204.00 96.00 L 204.00 192.00 L 102.00 192.00 L 0.00 192.00 L 0.00 96.00 ZM 146.07 179.16 C168.42,171.93 190.26,146.39 198.21,118.19 C201.25,107.38 201.26,85.95 198.23,74.85 C193.96,59.25 187.56,47.36 176.67,34.75 C173.94,31.59 171.29,29.00 170.80,29.00 C170.30,29.00 172.36,33.61 175.38,39.25 C180.38,48.59 185.00,61.60 185.00,66.35 C185.00,67.91 184.33,67.63 181.06,64.67 C177.21,61.20 172.01,58.00 170.20,58.00 C169.70,58.00 169.90,60.35 170.65,63.22 C173.88,75.67 171.73,89.71 164.68,102.17 C161.16,108.41 152.39,118.72 151.43,117.76 C151.15,117.49 151.39,115.29 151.94,112.88 C153.10,107.87 153.31,101.64 152.35,100.69 C152.00,100.33 148.73,102.84 145.09,106.27 C141.45,109.70 135.78,113.91 132.48,115.64 C125.29,119.42 111.53,123.02 104.56,122.95 L 99.50 122.90 L 105.61 120.62 C120.00,115.28 129.76,107.01 135.66,95.19 C139.34,87.81 139.49,87.09 139.50,77.50 C139.50,68.35 139.23,66.93 136.35,60.85 C134.62,57.19 131.35,52.35 129.10,50.10 C126.84,47.84 125.41,46.00 125.92,46.00 C128.21,46.00 136.06,50.17 141.88,54.47 C148.23,59.16 148.26,59.17 147.57,56.35 C145.60,48.37 139.62,38.55 132.15,31.05 C123.79,22.66 118.43,19.16 108.20,15.39 C81.63,5.62 56.41,9.36 37.16,25.93 C21.23,39.64 10.81,56.35 6.57,74.99 C-0.01,103.91 7.19,132.69 26.75,155.60 C33.94,164.03 36.53,165.25 32.36,158.25 C28.46,151.68 24.55,143.43 22.54,137.50 C20.66,131.94 19.00,124.00 19.73,124.00 C19.98,124.00 22.12,125.69 24.48,127.75 C26.85,129.81 30.24,132.35 32.02,133.39 L 35.27 135.27 L 34.38 130.39 C33.90,127.70 33.53,120.55 33.57,114.50 C33.63,104.92 33.99,102.66 36.33,97.00 C39.25,89.97 46.46,79.63 50.55,76.63 C53.75,74.28 54.22,74.75 52.98,79.06 C51.81,83.16 51.67,92.00 52.79,92.00 C53.22,92.00 55.81,89.72 58.54,86.93 C67.69,77.58 83.14,70.83 98.00,69.69 L 105.50 69.11 L 100.00 71.33 C75.07,81.40 63.80,96.58 65.27,118.12 C65.90,127.25 68.07,132.55 74.35,140.26 C76.92,143.42 78.55,146.00 77.96,146.00 C76.20,146.00 70.87,143.01 64.18,138.28 C60.71,135.82 57.60,134.06 57.29,134.38 C56.55,135.12 59.47,142.78 62.79,148.82 C64.21,151.39 69.00,157.14 73.43,161.60 C82.53,170.73 92.69,176.47 106.00,180.01 C116.24,182.73 136.34,182.30 146.07,179.16 Z" fill="rgb(252,252,252)"/>
</g>
</svg>